<svg xmlns="http://www.w3.org/2000/svg" width="1600" height="1600" viewBox="0 0 1600 1600" version="1.1"><path d="M 1283.476 349 L 1209.453 349.500 1204.294 352.811 C 1201.457 354.632, 1195.688 359.918, 1191.475 364.559 C 1182.505 374.439, 1162.224 393.715, 1119.990 432.500 C 1067.847 480.384, 1056.869 492.349, 1051.946 506.656 C 1049.609 513.449, 1047.383 525.183, 1046 538 C 1042.627 569.245, 1031.190 593.676, 1006.845 621.639 C 980.941 651.391, 924.561 709.092, 915.198 715.431 C 906.976 720.998, 896.362 719.456, 890.744 711.878 C 887.995 708.169, 888.045 698.276, 890.835 693.780 C 892.963 690.352, 945.627 637.640, 959.500 625.052 C 977.857 608.396, 980.702 603.636, 977.129 595.559 C 974.635 589.920, 970.486 587.603, 964.001 588.226 C 957.207 588.879, 951.727 593.040, 934 611.010 C 902.658 642.780, 873.468 670.603, 869.562 672.430 C 861.218 676.333, 851.821 673.393, 848.105 665.718 C 843.156 655.494, 844.046 654.296, 885.500 615.412 C 893.750 607.673, 908.227 594.280, 917.671 585.649 C 937.167 567.832, 940.125 563.698, 938.133 557.049 C 935.988 549.890, 928.505 545.120, 921.487 546.436 C 916.877 547.301, 913.437 550.333, 883.558 579.862 C 833.809 629.028, 827.855 634.021, 820.686 632.587 C 812.831 631.016, 807.010 624.477, 807.004 617.218 C 806.999 611.608, 808.934 607.182, 814.439 600.208 C 819.404 593.920, 843.067 571.125, 861 555.356 C 895.063 525.404, 908.781 513.049, 911.299 510.057 L 914.098 506.730 913.543 435.615 C 913.238 396.502, 912.990 363.503, 912.994 362.285 C 913.001 359.643, 907.830 353.481, 903.901 351.449 C 900.038 349.451, 795.192 349.261, 794.506 351.250 C 794.269 351.938, 792.462 363.525, 790.491 377 C 788.520 390.475, 783.988 421.300, 780.420 445.500 C 776.852 469.700, 773.074 495.350, 772.024 502.500 C 762.930 564.434, 760.897 578.065, 760.032 582.925 C 759.486 585.991, 757.450 599.525, 755.507 613 C 753.565 626.475, 750.856 644.925, 749.489 654 C 748.121 663.075, 746.338 675, 745.528 680.500 C 744.717 686, 741.984 704.225, 739.454 721 C 736.924 737.775, 733.972 757.350, 732.895 764.500 C 731.817 771.650, 729.846 785.375, 728.514 795 C 727.182 804.625, 724.485 823.300, 722.521 836.500 C 720.557 849.700, 716.705 876.025, 713.961 895 C 711.217 913.975, 708.526 931.750, 707.981 934.500 C 707.436 937.250, 705.849 947.375, 704.456 957 C 700.546 984.003, 695.296 1018.597, 692.012 1039 C 690.374 1049.175, 687.912 1066.413, 686.539 1077.307 C 685.166 1088.201, 683.381 1100.801, 682.572 1105.307 C 681.078 1113.632, 675.837 1147.475, 669.458 1190 C 667.519 1202.925, 664.807 1220.897, 663.432 1229.938 C 662.056 1238.980, 661.159 1246.971, 661.437 1247.697 C 661.855 1248.786, 702.675 1248.972, 894.766 1248.758 C 1115.722 1248.513, 1127.726 1248.410, 1130.294 1246.727 C 1132.325 1245.396, 1133 1244.136, 1133 1241.673 C 1133 1236.892, 1130.709 1233.491, 1103.948 1198.554 C 1097.652 1190.334, 1091.150 1181.704, 1089.500 1179.378 C 1087.850 1177.052, 1083.097 1170.728, 1078.937 1165.324 C 1074.777 1159.921, 1067.802 1150.858, 1063.437 1145.184 C 1054.357 1133.383, 1027.842 1097.622, 1018.813 1085 C 1004.614 1065.150, 998.517 1060.222, 981.766 1055.054 C 934.634 1040.512, 904.952 1024.103, 878.194 997.794 C 853.369 973.387, 837.517 944.925, 830.965 913 C 826.999 893.671, 829.287 869.642, 836.677 853 C 839.935 845.665, 848.165 837.522, 856.469 833.418 C 862.542 830.416, 865.313 829.688, 873.127 829.038 C 878.282 828.610, 883.625 828.393, 885 828.556 C 886.375 828.719, 890.098 829.116, 893.274 829.438 C 901.375 830.259, 916.875 835.372, 927.500 840.729 C 949.573 851.856, 964.245 863.297, 980.429 882 C 994.170 897.881, 1001.214 908.717, 1008.696 925.489 C 1019.389 949.457, 1021.475 958.350, 1024.041 990.906 C 1025.151 1004.983, 1026.711 1019.765, 1027.508 1023.756 C 1031.568 1044.076, 1045.156 1065.576, 1080.500 1107.607 C 1098.734 1129.291, 1114.366 1147.287, 1125.545 1159.467 C 1140.868 1176.162, 1163.816 1202.390, 1174.523 1215.446 C 1190.041 1234.369, 1195.485 1240.387, 1200.567 1244.239 C 1209.323 1250.877, 1210.163 1250.986, 1244.743 1249.973 C 1261.659 1249.478, 1301.375 1249.031, 1333 1248.980 C 1374.733 1248.912, 1391.450 1248.560, 1393.965 1247.694 C 1398.883 1246, 1402.023 1241.037, 1401.013 1236.556 C 1399.943 1231.815, 1393.622 1221.715, 1364.711 1178.561 C 1355.476 1164.777, 1329.835 1126.275, 1307.729 1093 C 1266.955 1031.625, 1261.724 1023.800, 1204.456 938.500 C 1156.010 866.340, 1118.133 810.917, 1093.460 776.085 C 1069.431 742.161, 1069.892 742.948, 1069.720 735.583 C 1069.562 728.832, 1070.052 728.090, 1089.500 705.710 C 1098.300 695.582, 1110.521 681.267, 1116.657 673.898 C 1136.684 649.849, 1150.025 634.066, 1198.500 577.076 C 1206.750 567.377, 1215.514 556.979, 1217.976 553.971 C 1220.437 550.962, 1228.987 540.860, 1236.976 531.523 C 1244.964 522.186, 1257.712 506.886, 1265.305 497.523 C 1278.747 480.948, 1282.275 476.668, 1298.634 457.084 C 1302.961 451.905, 1309.200 444.391, 1312.500 440.385 C 1315.800 436.380, 1327.598 422.070, 1338.717 408.586 C 1373.375 366.555, 1375.701 363.122, 1373.907 356.626 C 1372.651 352.075, 1369.608 350.032, 1362.805 349.171 C 1359.887 348.802, 1324.189 348.725, 1283.476 349 M 1103.500 350.599 C 1097.450 351.315, 1073.375 352.360, 1050 352.921 C 1026.625 353.481, 1001.650 354.379, 994.500 354.915 C 987.350 355.452, 973.625 356.370, 964 356.957 C 954.375 357.543, 945.071 358.257, 943.325 358.543 L 940.150 359.062 939.735 367.281 C 939.507 371.802, 939.360 397.775, 939.410 425 C 939.497 472.615, 939.576 474.629, 941.500 477.894 C 944.471 482.937, 946.408 483.838, 949.739 481.726 C 957.820 476.602, 969.524 470.815, 977.500 467.999 C 986.109 464.960, 987.130 464.827, 1001 464.928 C 1008.975 464.985, 1018.200 465.518, 1021.500 466.111 C 1032.642 468.114, 1033.584 467.866, 1039.339 461.414 C 1042.177 458.232, 1046.750 452.850, 1049.500 449.455 C 1052.250 446.060, 1069.156 425.762, 1087.069 404.349 C 1117.759 367.663, 1131 351.180, 1131 349.661 C 1131 348.634, 1115.680 349.157, 1103.500 350.599 M 433.168 357.146 C 425.229 361.075, 421.453 370.403, 424.048 379.672 C 425.735 385.698, 432.076 392.400, 437.500 393.890 C 440.314 394.663, 481.376 394.990, 576.007 394.994 C 660.551 394.998, 711.778 395.363, 713.920 395.977 C 722.258 398.368, 729.119 406.118, 730.363 414.551 C 730.691 416.779, 730.536 421.279, 730.019 424.551 C 729.170 429.918, 728.579 430.964, 723.981 435.239 C 714.788 443.788, 724.519 443.258, 583.969 442.855 L 460.173 442.500 455.913 445.500 C 447.814 451.204, 444.772 461.758, 448.912 469.790 C 451.407 474.630, 456.500 479.449, 461.500 481.699 C 465.261 483.393, 472.752 483.530, 587 484 C 720.955 484.551, 710.991 484.041, 717.136 490.661 C 722.769 496.729, 724.672 503.445, 723.018 511.415 C 721.678 517.867, 717.615 523.453, 711.682 527 L 707.500 529.500 559.500 530 C 424.054 530.458, 411.201 530.641, 407.980 532.167 C 403.635 534.225, 401.527 536.495, 399.538 541.254 C 395.033 552.037, 400.441 563.771, 412.342 569.034 L 417.184 571.175 556.842 571.660 C 709.168 572.189, 700.947 571.852, 707.376 577.827 C 711.818 581.955, 713.953 587.552, 713.978 595.137 C 713.997 600.986, 713.614 602.348, 710.750 606.608 C 708.928 609.317, 705.372 612.751, 702.658 614.421 L 697.817 617.401 492.658 617.951 L 287.500 618.500 283 621.017 C 279.876 622.764, 277.649 625.057, 275.717 628.517 C 268.743 641.004, 276.099 656.361, 290.371 659.108 C 292.642 659.545, 353.675 660.027, 426 660.179 C 498.325 660.331, 585.625 660.691, 620 660.978 L 682.500 661.500 687.038 664.652 C 693.556 669.180, 697.448 676.641, 697.478 684.664 C 697.497 689.935, 697.060 691.454, 694.461 695.152 C 692.789 697.530, 689.414 700.832, 686.961 702.488 L 682.500 705.500 574 705.500 C 514.325 705.500, 401.825 705.302, 324 705.060 C 169.392 704.580, 178.801 704.253, 171.998 710.335 C 162.636 718.704, 163.944 734.809, 174.593 742.285 C 178.218 744.830, 179.932 745.255, 189.593 746.004 C 195.592 746.469, 282.850 747.113, 383.501 747.436 C 506.982 747.833, 567.744 748.367, 570.322 749.078 C 575.089 750.395, 581.492 756.083, 584.215 761.422 C 589.484 771.749, 583.648 787.651, 573.342 791.052 C 570.693 791.927, 532.985 792.261, 425.642 792.363 C 292.513 792.490, 281.265 792.629, 278.425 794.185 C 274.050 796.583, 268.453 803.097, 267.009 807.472 C 264.136 816.178, 269.633 827.099, 279.500 832.286 L 283.500 834.389 470.500 835.166 C 601.046 835.708, 658.661 836.273, 661.345 837.040 C 670.014 839.514, 677.993 852.024, 676.424 860.683 C 675.060 868.213, 670.335 875.214, 664.500 878.350 L 660.500 880.500 487.340 880.500 L 314.180 880.500 309.848 883.542 C 299.009 891.153, 297.840 905.972, 307.301 915.835 C 314.277 923.108, 297.823 922.445, 485 923 L 653.500 923.500 657.583 926.157 C 666.646 932.055, 670.002 939.339, 668.091 948.962 C 666.698 955.979, 662.655 961.802, 656.956 965 L 652.500 967.500 603 967.130 C 575.775 966.927, 525.900 967.098, 492.167 967.511 L 430.835 968.261 426.194 971.381 C 415.011 978.898, 412.873 991.368, 421.068 1001.279 C 422.787 1003.357, 425.932 1005.945, 428.057 1007.029 C 431.786 1008.931, 434.370 1009.004, 502.210 1009.124 C 540.870 1009.192, 588.488 1009.529, 608.028 1009.874 L 643.557 1010.500 648.704 1014.281 C 663.397 1025.073, 661.799 1045.110, 645.621 1052.942 C 641.381 1054.994, 640.876 1055, 477.381 1055 L 313.393 1055 308.129 1057.623 C 296.025 1063.655, 293.186 1078.250, 302.139 1088.420 C 309.978 1097.326, 293.462 1096.467, 462.500 1096.757 L 612.500 1097.014 618 1099.757 C 633.629 1107.552, 635.221 1130.117, 620.795 1139.384 C 617.508 1141.495, 617.263 1141.501, 514.500 1142 C 421.044 1142.454, 411.176 1142.655, 408 1144.168 C 401.154 1147.431, 396 1155.207, 396 1162.272 C 396 1167.251, 400.655 1175.737, 405.186 1179.020 C 407.339 1180.580, 411.351 1182.338, 414.100 1182.928 C 417.451 1183.647, 449.421 1184, 511.099 1184 C 611.327 1184, 606.271 1183.716, 610.912 1189.615 C 612.392 1191.496, 613 1193.714, 613 1197.227 C 613 1202.589, 611.058 1206.002, 606.177 1209.222 C 603.656 1210.884, 596.517 1210.987, 483.946 1210.993 L 364.392 1211 359.742 1213.948 C 352.492 1218.547, 349.021 1227.225, 351.112 1235.529 C 352.443 1240.818, 357.598 1247.077, 362.717 1249.620 C 366.375 1251.438, 371.081 1251.488, 505.500 1251.138 C 581.950 1250.939, 644.573 1250.714, 644.662 1250.638 C 645.175 1250.199, 651.483 1212.956, 654.509 1192.500 C 661.136 1147.691, 664.907 1122.533, 666.950 1109.500 C 668.071 1102.350, 669.682 1090.723, 670.531 1083.662 C 671.379 1076.600, 672.962 1065.800, 674.049 1059.662 C 675.136 1053.523, 677.127 1040.625, 678.474 1031 C 681.677 1008.102, 682.567 1002.212, 684.363 992 C 685.185 987.325, 686.154 980.800, 686.516 977.500 C 686.879 974.200, 688.464 963.400, 690.040 953.500 C 692.791 936.209, 696.069 914.273, 698.108 899.500 C 698.639 895.650, 699.968 887.073, 701.060 880.439 C 702.153 873.806, 703.909 862.106, 704.962 854.439 C 706.016 846.773, 708.241 831.275, 709.906 820 C 711.571 808.725, 713.596 794.550, 714.406 788.500 C 715.215 782.450, 717.010 770.975, 718.394 763 C 719.778 755.025, 721.832 741.975, 722.958 734 C 724.921 720.098, 726.039 712.573, 728.079 699.500 C 728.594 696.200, 729.439 690.350, 729.956 686.500 C 730.473 682.650, 732.076 671.850, 733.517 662.500 C 734.959 653.150, 736.756 641, 737.512 635.500 C 738.268 630, 739.329 622.575, 739.871 619 C 740.412 615.425, 741.775 606.200, 742.899 598.500 C 744.022 590.800, 745.589 580.675, 746.381 576 C 747.173 571.325, 748.358 563.450, 749.016 558.500 C 749.673 553.550, 751.098 543.875, 752.182 537 C 754.291 523.620, 756.427 508.433, 758.019 495.500 C 758.560 491.100, 759.445 485.025, 759.986 482 C 760.527 478.975, 762.332 467.050, 763.997 455.500 C 765.663 443.950, 767.904 428.650, 768.977 421.500 C 770.051 414.350, 771.633 403.100, 772.494 396.500 C 774.044 384.602, 777.680 361.576, 778.691 357.250 L 779.217 355 608.358 355.001 L 437.500 355.002 433.168 357.146 M 322.500 442.897 C 314.811 444.292, 310.256 447.749, 307.538 454.254 C 303.409 464.137, 307.555 474.995, 317.500 480.347 C 321.336 482.412, 322.708 482.500, 351 482.500 C 379.682 482.500, 380.617 482.438, 384.712 480.249 C 392.513 476.080, 396 470.402, 396 461.867 C 396 454.598, 392.769 448.537, 387.125 445.219 L 382.500 442.500 354.500 442.335 C 339.100 442.245, 324.700 442.497, 322.500 442.897 M 241.404 532.392 C 234.762 535.485, 231.910 539.989, 231.323 548.312 C 230.934 553.822, 231.218 555.065, 233.913 559.662 C 236.352 563.822, 238.061 565.374, 242.720 567.662 L 248.500 570.500 290 570.214 L 331.500 569.927 336.780 567.375 C 347.670 562.112, 351.301 548.569, 344.436 538.822 C 342.821 536.529, 339.517 533.606, 337.093 532.327 L 332.685 530 289.593 530.010 L 246.500 530.020 241.404 532.392 M 123.759 619.401 C 115.394 622.435, 112.276 626.520, 111.285 635.742 C 110.371 644.247, 114.694 652.744, 121.782 656.374 C 126.172 658.622, 132.508 658.992, 171 659.252 L 207.500 659.499 212.177 656.750 C 217.966 653.348, 220.400 650.322, 222.546 643.862 C 223.973 639.564, 224.033 638.163, 222.959 634.169 C 221.307 628.022, 217.845 623.495, 212.692 620.741 C 208.570 618.538, 207.820 618.496, 168 618.272 C 135.949 618.092, 126.720 618.327, 123.759 619.401 M 1594.626 722.500 C 1595.992 735.976, 1596.875 739.634, 1596.317 729.500 C 1596.014 724, 1595.373 718.825, 1594.892 718 C 1594.368 717.100, 1594.262 718.902, 1594.626 722.500 M 1598.326 796.500 C 1598.321 823.562, 1598.620 838.795, 1599.053 833.500 C 1599.985 822.088, 1599.981 774.838, 1599.045 761 C 1598.622 754.742, 1598.332 769.086, 1598.326 796.500 M 1596.536 852.711 C 1596.162 854.202, 1595.460 861.514, 1594.975 868.961 C 1591.846 917.037, 1580.253 978.696, 1564.909 1028.868 C 1562.156 1037.871, 1560.056 1045.389, 1560.243 1045.576 C 1560.429 1045.763, 1562.298 1040.647, 1564.395 1034.208 C 1566.492 1027.768, 1568.645 1021.393, 1569.178 1020.041 C 1572.061 1012.731, 1586.856 948.103, 1588.647 935 C 1588.985 932.525, 1589.593 930.050, 1589.999 929.500 C 1590.405 928.950, 1590.769 926.929, 1590.808 925.008 C 1590.848 923.088, 1591.570 915.888, 1592.414 909.008 C 1593.258 902.129, 1594.379 892.900, 1594.905 888.500 C 1595.432 884.100, 1596.102 874.431, 1596.394 867.012 C 1596.708 859.062, 1597.352 853.383, 1597.963 853.179 C 1599.228 852.757, 1599.354 850, 1598.108 850 C 1597.618 850, 1596.911 851.220, 1596.536 852.711 M 1549.389 1075.674 C 1542.442 1095.408, 1542.239 1096.112, 1545.488 1089.235 C 1548.202 1083.487, 1556.206 1059.873, 1555.634 1059.300 C 1555.439 1059.105, 1552.629 1066.473, 1549.389 1075.674 M 1538.709 1103.706 C 1536.765 1108.543, 1533.785 1115.579, 1532.087 1119.343 C 1528.713 1126.823, 1528.243 1128.526, 1530.404 1125.440 C 1532.295 1122.740, 1543.249 1095.915, 1542.689 1095.355 C 1542.445 1095.111, 1540.654 1098.869, 1538.709 1103.706 M 279.184 1142.950 C 272.253 1144.673, 265.930 1150.833, 264.094 1157.650 C 261.118 1168.703, 269.196 1180.356, 281.687 1183.029 C 284.901 1183.716, 295.362 1184.017, 309.187 1183.819 C 329.494 1183.529, 331.815 1183.317, 335 1181.461 C 339.425 1178.884, 344.611 1171.262, 345.493 1166.040 C 346.952 1157.408, 340.457 1146.529, 332.269 1143.890 C 327.821 1142.456, 284.271 1141.685, 279.184 1142.950 M 1512.477 1161.668 C 1510.446 1165.976, 1508.046 1170.400, 1507.142 1171.500 C 1505.507 1173.491, 1505.510 1173.492, 1507.799 1171.551 C 1510.138 1169.567, 1517.520 1155.187, 1516.647 1154.314 C 1516.384 1154.051, 1514.508 1157.360, 1512.477 1161.668 M 1480.430 1217.750 C 1474.224 1228.155, 1453.949 1258.596, 1444.964 1271 C 1430.422 1291.076, 1404.645 1322.332, 1390.585 1336.938 C 1385.588 1342.129, 1382.389 1345.729, 1383.475 1344.938 C 1384.561 1344.147, 1386.535 1342.238, 1387.860 1340.695 C 1389.223 1339.109, 1390.886 1338.126, 1391.687 1338.433 C 1392.511 1338.750, 1392.834 1338.540, 1392.459 1337.934 C 1392.104 1337.360, 1393.993 1334.530, 1396.657 1331.646 C 1399.321 1328.761, 1404.425 1322.883, 1408 1318.582 C 1411.575 1314.281, 1416.328 1308.678, 1418.563 1306.131 C 1425.127 1298.648, 1441.044 1278.294, 1448.774 1267.500 C 1452.712 1262, 1456.351 1257.008, 1456.861 1256.406 C 1457.370 1255.804, 1458.575 1253.779, 1459.538 1251.906 C 1461.126 1248.817, 1462.810 1246.277, 1471.741 1233.500 C 1473.279 1231.300, 1476.523 1226.125, 1478.951 1222 C 1481.379 1217.875, 1483.889 1213.825, 1484.530 1213 C 1485.767 1211.408, 1487.173 1208, 1486.592 1208 C 1486.402 1208, 1483.629 1212.388, 1480.430 1217.750 M 1375.390 1354.250 C 1369.609 1360.266, 1367.359 1363.549, 1371.078 1360.542 C 1376.047 1356.524, 1382.331 1349, 1380.718 1349 C 1380.562 1349, 1378.165 1351.362, 1375.390 1354.250 M 1357.274 1372.417 C 1354.099 1375.396, 1351.751 1378.085, 1352.057 1378.391 C 1352.364 1378.697, 1355.275 1376.259, 1358.526 1372.974 C 1365.905 1365.517, 1365.039 1365.132, 1357.274 1372.417 M 1342.676 1384.733 C 1328.181 1398.189, 1322.266 1404, 1323.063 1404 C 1323.530 1404, 1329.670 1398.527, 1336.706 1391.838 C 1343.743 1385.150, 1349.688 1379.525, 1349.917 1379.338 C 1350.146 1379.152, 1350 1379, 1349.592 1379 C 1349.185 1379, 1346.072 1381.580, 1342.676 1384.733 M 1291.925 1428.272 C 1288.308 1431.147, 1281.827 1436.344, 1277.522 1439.820 C 1273.216 1443.295, 1265.722 1448.892, 1260.867 1452.256 C 1256.012 1455.620, 1252.203 1458.536, 1252.403 1458.736 C 1252.736 1459.070, 1259.083 1455.199, 1261.561 1453.151 C 1262.145 1452.668, 1265.520 1450.171, 1269.061 1447.600 C 1277.196 1441.696, 1281.810 1438.072, 1284.606 1435.393 C 1285.815 1434.234, 1289.549 1431.130, 1292.903 1428.495 C 1298.240 1424.302, 1299.695 1422.940, 1298.750 1423.022 C 1298.612 1423.034, 1295.541 1425.396, 1291.925 1428.272 M 1227.500 1473.794 C 1218.628 1479.910, 1212.937 1484.270, 1213.324 1484.657 C 1213.639 1484.973, 1229.969 1473.341, 1231.917 1471.412 C 1233.100 1470.241, 1231.051 1471.346, 1227.500 1473.794 M 1169.162 1508.305 C 1168.566 1509.023, 1162.462 1512.499, 1155.597 1516.030 C 1148.733 1519.560, 1143.283 1522.617, 1143.488 1522.821 C 1144.267 1523.600, 1169.228 1510.415, 1170.126 1508.750 C 1171.237 1506.691, 1170.705 1506.446, 1169.162 1508.305 M 1088 1544.996 C 1077.659 1548.406, 1056.574 1556.107, 1056.092 1556.650 C 1055.767 1557.018, 1056.175 1557.095, 1057 1556.822 C 1057.825 1556.549, 1063 1554.842, 1068.500 1553.029 C 1074 1551.216, 1080.408 1548.893, 1082.739 1547.866 C 1085.071 1546.840, 1087.632 1546, 1088.430 1546 C 1089.229 1546, 1090.160 1545.550, 1090.500 1545 C 1090.840 1544.450, 1090.979 1544.039, 1090.809 1544.086 C 1090.639 1544.133, 1089.375 1544.543, 1088 1544.996 M 1022.141 1567.072 C 1018.592 1568.493, 977.808 1578.357, 958.643 1582.430 C 942.669 1585.825, 920.251 1589.730, 911.500 1590.642 C 896.054 1592.252, 870.989 1595.029, 868.500 1595.406 C 863.767 1596.122, 884.787 1595.005, 891.819 1594.167 C 895.294 1593.752, 898.372 1593.792, 898.658 1594.255 C 898.944 1594.718, 899.787 1594.592, 900.532 1593.974 C 901.276 1593.356, 905.198 1592.740, 909.246 1592.606 C 913.294 1592.471, 917.041 1592.092, 917.573 1591.764 C 918.105 1591.435, 925.275 1589.989, 933.506 1588.549 C 941.737 1587.110, 954.256 1584.596, 961.325 1582.962 C 968.394 1581.329, 974.608 1580.258, 975.133 1580.582 C 975.658 1580.907, 976.678 1580.682, 977.400 1580.083 C 978.122 1579.484, 982.940 1578.097, 988.106 1577.002 C 993.273 1575.907, 999.939 1574.354, 1002.920 1573.551 C 1005.900 1572.748, 1008.712 1572.322, 1009.168 1572.604 C 1009.624 1572.885, 1010.997 1572.415, 1012.221 1571.558 C 1013.444 1570.701, 1015.582 1569.967, 1016.973 1569.926 C 1019.697 1569.846, 1028.491 1566.155, 1026 1566.138 C 1025.175 1566.132, 1023.438 1566.552, 1022.141 1567.072 M 680.445 1591.215 C 681.514 1591.821, 685.270 1592.478, 688.791 1592.675 C 692.311 1592.871, 696.021 1593.476, 697.035 1594.019 C 698.115 1594.597, 699.110 1594.631, 699.437 1594.102 C 700.104 1593.023, 692.828 1591.328, 684.500 1590.622 C 679.808 1590.224, 678.924 1590.354, 680.445 1591.215 M 701 1593.079 C 701 1593.438, 704.089 1593.952, 707.864 1594.222 C 711.639 1594.492, 715.242 1595.032, 715.872 1595.421 C 717.113 1596.188, 739.214 1596.880, 738.462 1596.128 C 738.210 1595.877, 732.491 1595.293, 725.752 1594.830 C 719.013 1594.368, 710.688 1593.638, 707.250 1593.208 C 703.813 1592.778, 701 1592.720, 701 1593.079" stroke="none" fill="#acf947" fill-rule="evenodd"/><path d="M 778 1.069 C 766.175 1.484, 750.650 2.302, 743.500 2.887 C 736.350 3.472, 726.450 4.226, 721.500 4.564 C 716.550 4.901, 707.550 6, 701.500 7.007 C 695.450 8.013, 686.450 9.348, 681.500 9.973 C 658.005 12.940, 651.309 14.127, 630.500 19.008 C 626.100 20.041, 614.625 22.723, 605 24.968 C 542.278 39.604, 464.794 70.981, 400.161 107.919 C 359.618 131.089, 305.541 170.134, 270.009 201.893 C 199.002 265.358, 137.979 342.748, 94.478 424.500 C 70.766 469.064, 49.583 519.561, 37.588 560.120 C 36.225 564.729, 33.488 573.900, 31.504 580.500 C 24.640 603.345, 16.119 640.754, 12.143 665.500 C 8.763 686.533, 6.916 699.043, 6.530 703.500 C 6.292 706.250, 5.616 713.225, 5.027 719 C 4.438 724.775, 3.316 735.800, 2.534 743.500 C 1.448 754.196, 1.199 769.299, 1.478 807.500 C 1.862 860.073, 2.463 874.587, 4.353 876.913 C 5.205 877.962, 5.208 878.423, 4.365 878.707 C 3.580 878.972, 3.496 880.231, 4.092 882.795 C 4.565 884.833, 4.970 888.750, 4.991 891.500 C 5.021 895.311, 5.283 896.143, 6.093 895 C 6.873 893.899, 7.012 894.961, 6.613 899 C 6.228 902.912, 6.348 903.923, 7.032 902.500 C 7.713 901.083, 7.821 902.030, 7.402 905.750 C 6.998 909.345, 7.170 911, 7.947 911 C 8.605 911, 9.048 912.574, 9.001 914.750 C 8.957 916.813, 9.389 921.538, 9.961 925.250 C 10.532 928.962, 11.420 934.813, 11.934 938.250 C 12.448 941.688, 13.098 945.400, 13.380 946.500 C 13.661 947.600, 14.622 952.550, 15.514 957.500 C 16.407 962.450, 17.570 967.896, 18.098 969.602 C 18.626 971.309, 19.235 974.009, 19.452 975.602 C 19.833 978.403, 26.093 1003.869, 28.153 1011 C 28.710 1012.925, 29.404 1015.743, 29.698 1017.262 C 29.991 1018.781, 30.629 1020.271, 31.115 1020.571 C 31.602 1020.872, 32 1021.971, 32 1023.014 C 32 1029.280, 59.576 1107.662, 63.113 1111.450 C 63.601 1111.973, 64 1113.010, 64 1113.755 C 64 1115.290, 65.808 1119.396, 74.014 1136.500 C 91.061 1172.031, 100.104 1188.981, 115.526 1214.311 C 124.118 1228.420, 148.004 1264.041, 155.553 1274 C 159.097 1278.675, 163.010 1283.905, 164.248 1285.622 C 165.487 1287.338, 168.525 1291.316, 171 1294.461 C 173.475 1297.606, 176.850 1301.912, 178.500 1304.031 C 182.801 1309.553, 197.376 1326.623, 206.618 1336.961 C 213.677 1344.858, 264.235 1395, 265.138 1395 C 265.557 1395, 269.185 1398.148, 273.200 1401.996 C 277.215 1405.844, 280.777 1408.994, 281.116 1408.996 C 281.455 1408.998, 284.155 1411.238, 287.116 1413.973 C 290.077 1416.708, 292.761 1418.958, 293.080 1418.973 C 293.399 1418.988, 295.649 1420.794, 298.080 1422.986 C 300.511 1425.178, 302.836 1426.978, 303.247 1426.986 C 303.658 1426.994, 305.683 1428.481, 307.747 1430.291 C 309.811 1432.101, 312.459 1434.239, 313.630 1435.041 C 317.366 1437.599, 329.092 1446.407, 332.352 1449.103 C 336.170 1452.261, 371.839 1476.361, 376.311 1478.804 C 378.065 1479.762, 382.165 1482.267, 385.421 1484.370 C 388.678 1486.473, 392.053 1488.455, 392.921 1488.773 C 393.790 1489.092, 395.850 1490.342, 397.500 1491.550 C 404.014 1496.322, 466.288 1528.135, 481.500 1534.462 C 486.450 1536.521, 491.850 1538.779, 493.500 1539.481 C 495.150 1540.183, 499.650 1541.968, 503.500 1543.448 C 507.350 1544.929, 511.850 1546.731, 513.500 1547.454 C 518.900 1549.819, 533.191 1554.846, 550.500 1560.469 C 559.850 1563.507, 568.960 1566.472, 570.744 1567.059 C 572.528 1567.645, 574.403 1567.869, 574.909 1567.556 C 575.415 1567.244, 575.980 1567.427, 576.165 1567.965 C 576.349 1568.502, 577.400 1569.113, 578.500 1569.321 C 579.600 1569.529, 581.225 1570.016, 582.110 1570.403 C 582.996 1570.790, 584.796 1571.247, 586.110 1571.418 C 587.425 1571.590, 589.788 1572.249, 591.362 1572.883 C 592.937 1573.517, 594.737 1573.957, 595.362 1573.860 C 595.988 1573.764, 597.218 1574.002, 598.097 1574.390 C 598.975 1574.779, 600.775 1575.222, 602.097 1575.376 C 603.418 1575.529, 605.175 1575.914, 606 1576.230 C 610.256 1577.860, 617.717 1579.314, 621.846 1579.317 C 624.406 1579.319, 625.600 1579.534, 624.500 1579.796 C 623.274 1580.088, 625.404 1580.978, 630 1582.094 C 638.232 1584.094, 640.569 1584.355, 637.500 1582.932 C 636.028 1582.250, 636.410 1582.169, 638.943 1582.624 C 640.837 1582.965, 643.039 1583.897, 643.837 1584.694 C 644.756 1585.613, 646.207 1585.914, 647.799 1585.514 C 649.331 1585.130, 650.607 1585.364, 651.071 1586.115 C 651.529 1586.855, 653.855 1587.299, 656.916 1587.229 C 659.712 1587.165, 662 1587.538, 662 1588.057 C 662 1588.576, 662.788 1588.993, 663.750 1588.985 C 665.263 1588.971, 665.297 1588.823, 664 1587.890 C 662.752 1586.993, 662.808 1586.911, 664.332 1587.406 C 665.339 1587.733, 666.914 1588.007, 667.832 1588.015 C 669.020 1588.026, 669.146 1588.256, 668.268 1588.813 C 667.540 1589.276, 668.564 1589.626, 670.768 1589.670 C 684.316 1589.936, 700.469 1592.432, 699.439 1594.099 C 699.132 1594.595, 701.327 1595, 704.316 1595 C 707.305 1595, 711.269 1595.219, 713.125 1595.486 C 716.010 1595.902, 716.137 1595.844, 714 1595.086 C 712.625 1594.598, 709.138 1594.155, 706.250 1594.100 C 703.362 1594.045, 701 1593.646, 701 1593.213 C 701 1592.780, 703.813 1592.778, 707.250 1593.208 C 710.688 1593.638, 719.013 1594.368, 725.752 1594.830 C 732.491 1595.293, 738.263 1595.930, 738.579 1596.245 C 738.895 1596.561, 734.506 1596.575, 728.826 1596.276 C 723.147 1595.977, 718.730 1595.986, 719.012 1596.295 C 719.294 1596.604, 724.469 1597.069, 730.512 1597.326 C 736.555 1597.584, 742.400 1598.179, 743.500 1598.648 C 744.600 1599.116, 771.074 1599.500, 802.330 1599.500 C 855.301 1599.500, 859.248 1599.381, 860.441 1597.750 C 861.826 1595.856, 863.555 1595.293, 862.438 1597.100 C 861.953 1597.886, 864.292 1598.019, 870.629 1597.566 C 883.751 1596.629, 898.929 1594.693, 898.507 1594.011 C 898.303 1593.682, 895.294 1593.752, 891.819 1594.167 C 884.787 1595.005, 863.767 1596.122, 868.500 1595.406 C 870.989 1595.029, 896.054 1592.252, 911.500 1590.642 C 929.110 1588.806, 963.441 1581.879, 999 1572.987 C 1029.448 1565.373, 1028.169 1565.638, 1023.500 1567.907 C 1021.300 1568.977, 1018.349 1569.885, 1016.941 1569.926 C 1015.534 1569.967, 1013.509 1570.712, 1012.441 1571.582 C 1010.527 1573.141, 1010.528 1573.153, 1012.500 1572.466 C 1013.600 1572.083, 1015.850 1571.413, 1017.500 1570.978 C 1022.458 1569.670, 1036.715 1565.215, 1049.481 1560.985 C 1056.092 1558.794, 1063.075 1556.522, 1065 1555.935 C 1066.925 1555.348, 1069.400 1554.494, 1070.500 1554.037 C 1071.600 1553.580, 1080.825 1549.963, 1091 1545.998 C 1114.224 1536.949, 1116.317 1536.022, 1117.300 1534.356 C 1117.740 1533.610, 1118.554 1533, 1119.109 1533 C 1119.664 1533, 1119.843 1533.445, 1119.507 1533.989 C 1119.157 1534.555, 1119.557 1534.724, 1120.442 1534.384 C 1121.293 1534.057, 1121.753 1533.410, 1121.466 1532.945 C 1121.179 1532.481, 1121.969 1531.554, 1123.222 1530.886 C 1125.290 1529.784, 1125.374 1529.826, 1124.127 1531.336 C 1122.849 1532.886, 1123.021 1532.889, 1126.627 1531.385 C 1133.203 1528.643, 1142.467 1523.794, 1143.138 1522.743 C 1143.489 1522.193, 1144.346 1522.096, 1145.043 1522.526 C 1145.792 1522.989, 1146.059 1522.905, 1145.697 1522.319 C 1144.926 1521.072, 1151.756 1517.731, 1153.223 1518.638 C 1153.829 1519.012, 1154.025 1518.849, 1153.666 1518.268 C 1152.807 1516.878, 1163.436 1511.534, 1165.062 1512.538 C 1165.796 1512.992, 1166.056 1512.900, 1165.694 1512.314 C 1165.355 1511.766, 1166.449 1510.305, 1168.124 1509.066 C 1171.007 1506.935, 1171.111 1506.924, 1170.080 1508.850 C 1169.187 1510.520, 1170.145 1510.225, 1175.423 1507.207 C 1178.961 1505.184, 1181.439 1503.271, 1180.929 1502.956 C 1179.948 1502.350, 1187.927 1498.397, 1189.312 1498.803 C 1190.134 1499.044, 1202.751 1492.469, 1204.394 1490.942 C 1204.886 1490.486, 1204.211 1490.378, 1202.894 1490.704 C 1201.577 1491.029, 1200.850 1490.916, 1201.278 1490.453 C 1201.706 1489.990, 1203.335 1489.522, 1204.897 1489.414 C 1207.827 1489.211, 1213 1486.379, 1213 1484.979 C 1213 1484.266, 1218.302 1480.145, 1226.500 1474.485 C 1235.644 1468.172, 1233.079 1470.821, 1222.750 1478.359 C 1218.487 1481.469, 1215 1484.291, 1215 1484.630 C 1215 1484.968, 1215.563 1484.799, 1216.250 1484.255 C 1216.938 1483.711, 1222.789 1479.835, 1229.253 1475.642 C 1235.717 1471.449, 1240.892 1467.508, 1240.753 1466.884 C 1240.614 1466.261, 1241.125 1465.523, 1241.889 1465.245 C 1242.860 1464.893, 1243.023 1465.156, 1242.432 1466.120 C 1241.865 1467.045, 1242.396 1466.937, 1244.043 1465.794 C 1245.394 1464.856, 1249.425 1462.314, 1253 1460.145 C 1256.575 1457.977, 1262.246 1454.006, 1265.602 1451.322 C 1268.958 1448.637, 1272.783 1445.632, 1274.102 1444.644 C 1276.439 1442.894, 1276.423 1442.892, 1273.500 1444.577 C 1271.850 1445.528, 1268.700 1447.695, 1266.500 1449.394 C 1264.300 1451.093, 1262.050 1452.830, 1261.500 1453.255 C 1258.548 1455.537, 1252.717 1459.050, 1252.403 1458.736 C 1252.203 1458.536, 1256.012 1455.620, 1260.867 1452.256 C 1265.722 1448.892, 1273.221 1443.295, 1277.531 1439.820 C 1284.304 1434.358, 1293.633 1426.933, 1297.750 1423.728 C 1298.438 1423.193, 1299 1422.969, 1299 1423.230 C 1299 1423.491, 1296.188 1425.891, 1292.750 1428.562 C 1289.313 1431.233, 1286.182 1433.925, 1285.793 1434.543 C 1285.404 1435.162, 1283.267 1436.929, 1281.043 1438.470 C 1278.819 1440.011, 1277 1441.650, 1277 1442.112 C 1277 1443.309, 1307.014 1419.875, 1323 1406.196 C 1338.583 1392.862, 1351.977 1380.006, 1351.991 1378.369 C 1351.996 1377.746, 1354.513 1375.046, 1357.585 1372.369 C 1364.231 1366.574, 1367.686 1363.123, 1374.891 1355.077 C 1377.856 1351.766, 1380.592 1349.248, 1380.971 1349.482 C 1382.043 1350.144, 1392.481 1339.148, 1391.609 1338.275 C 1391.183 1337.850, 1389.613 1338.851, 1388.119 1340.501 C 1386.626 1342.150, 1384.526 1344.147, 1383.452 1344.938 C 1382.378 1345.729, 1385.588 1342.129, 1390.585 1336.938 C 1404.645 1322.332, 1430.422 1291.076, 1444.964 1271 C 1453.949 1258.596, 1474.224 1228.155, 1480.430 1217.750 C 1483.629 1212.387, 1486.402 1208, 1486.592 1208 C 1487.173 1208, 1485.767 1211.408, 1484.530 1213 C 1483.889 1213.825, 1481.379 1217.875, 1478.951 1222 C 1476.523 1226.125, 1473.279 1231.300, 1471.741 1233.500 C 1462.810 1246.277, 1461.126 1248.817, 1459.538 1251.906 C 1458.575 1253.779, 1457.370 1255.804, 1456.861 1256.406 C 1456.351 1257.008, 1452.710 1262, 1448.769 1267.500 C 1437.122 1283.753, 1400.121 1329.066, 1394.136 1334.405 C 1392.046 1336.269, 1391.193 1338.494, 1392.821 1337.833 C 1393.600 1337.517, 1413.855 1314.188, 1422.629 1303.500 C 1430.654 1293.726, 1457.861 1257.092, 1460.629 1252.335 C 1462.176 1249.676, 1465.545 1244.575, 1468.114 1241 C 1472.360 1235.093, 1495 1198.458, 1495 1197.494 C 1495 1197.271, 1496.350 1194.798, 1498 1192 C 1501.526 1186.020, 1501.885 1184.555, 1498.829 1188.615 C 1496.041 1192.319, 1494.410 1194.015, 1495.572 1192 C 1500.138 1184.084, 1502.868 1180.099, 1503.155 1180.933 C 1503.345 1181.483, 1505.224 1178.911, 1507.332 1175.217 C 1510.822 1169.099, 1510.924 1168.723, 1508.478 1171 L 1505.792 1173.500 1508.146 1169.871 C 1509.441 1167.875, 1510.806 1166.420, 1511.181 1166.637 C 1511.555 1166.855, 1512.187 1166.506, 1512.585 1165.862 C 1513.057 1165.098, 1512.874 1164.960, 1512.058 1165.464 C 1511.195 1165.997, 1510.919 1165.658, 1511.168 1164.368 C 1511.365 1163.341, 1512.046 1162.500, 1512.680 1162.500 C 1513.314 1162.500, 1514.208 1162.090, 1514.667 1161.590 C 1515.157 1161.054, 1514.946 1161, 1514.154 1161.458 C 1513.193 1162.014, 1512.911 1161.703, 1513.168 1160.368 C 1513.365 1159.341, 1514.159 1158.500, 1514.930 1158.500 C 1515.702 1158.500, 1516.518 1157.825, 1516.743 1157 C 1517.107 1155.667, 1517.027 1155.667, 1516.022 1157 C 1515.072 1158.261, 1514.950 1158.182, 1515.256 1156.500 C 1515.455 1155.400, 1516.073 1154.585, 1516.629 1154.690 C 1518.741 1155.087, 1542.106 1103.441, 1550.645 1079.500 C 1552.019 1075.650, 1553.507 1071.600, 1553.953 1070.500 C 1556.549 1064.096, 1567.058 1030.674, 1566.759 1029.776 C 1566.562 1029.185, 1565.087 1032.570, 1563.481 1037.298 C 1558.698 1051.387, 1559.536 1046.439, 1564.909 1028.868 C 1573.568 1000.555, 1582.658 961.558, 1587.489 932 C 1590.680 912.477, 1594.998 875.859, 1595.006 868.263 C 1595.013 860.757, 1596.659 850.829, 1598.038 849.977 C 1598.677 849.582, 1599.252 844.825, 1599.438 838.403 C 1599.714 828.829, 1599.664 828.414, 1599.023 835 C 1598.619 839.157, 1598.263 820.436, 1598.224 793 C 1598.186 765.775, 1598.061 741.025, 1597.946 738 C 1597.758 733.067, 1597.668 732.861, 1597.071 736 C 1596.514 738.934, 1596.283 738.207, 1595.647 731.500 C 1595.230 727.100, 1594.655 721.925, 1594.369 720 C 1593.976 717.350, 1594.109 716.864, 1594.914 718 C 1595.680 719.081, 1595.817 716.849, 1595.404 710 C 1595.089 704.775, 1594.580 699.825, 1594.272 699 C 1593.615 697.239, 1593.449 696.035, 1593.029 690 L 1592.716 685.500 1592 689.500 L 1591.284 693.500 1591.128 689 C 1591.043 686.525, 1590.715 683.375, 1590.400 682 C 1589.969 680.121, 1590.079 679.860, 1590.845 680.948 C 1591.569 681.979, 1591.695 681.115, 1591.282 677.948 C 1590.962 675.502, 1590.205 673.179, 1589.600 672.786 C 1588.995 672.394, 1588.493 669.919, 1588.485 667.286 C 1588.476 664.654, 1588.125 661.958, 1587.704 661.296 C 1587.283 660.634, 1587.243 658.879, 1587.615 657.397 C 1587.995 655.883, 1587.899 654.944, 1587.396 655.255 C 1586.903 655.560, 1586.451 654.389, 1586.390 652.655 C 1586.202 647.248, 1585.527 643.004, 1584.856 643.002 C 1584.501 643.001, 1584.195 641.987, 1584.174 640.750 C 1584.108 636.718, 1582.929 630.620, 1582.001 629.501 C 1581.502 628.900, 1581.110 627.529, 1581.130 626.454 C 1581.178 623.854, 1577.517 607.451, 1575.007 599.023 C 1573.903 595.317, 1573 591.395, 1573 590.309 C 1573 589.222, 1572.687 588.020, 1572.304 587.638 C 1571.922 587.255, 1571.506 586.245, 1571.381 585.393 C 1571.256 584.541, 1570.826 583.091, 1570.426 582.172 C 1570.026 581.252, 1569.590 580.050, 1569.458 579.500 C 1565.498 562.994, 1553.794 528.454, 1543.706 503.500 C 1532.962 476.923, 1533.423 477.949, 1519.666 450 C 1492.401 394.613, 1472.394 362.710, 1429 305.427 C 1427.625 303.612, 1423.800 298.910, 1420.500 294.978 C 1417.200 291.046, 1413.115 286.108, 1411.422 284.004 C 1403.205 273.788, 1374.155 242.470, 1361.301 229.968 C 1329.937 199.465, 1322.960 193.358, 1293.635 170.737 C 1284.910 164.007, 1275.010 156.310, 1271.635 153.633 C 1262.543 146.421, 1221.633 119.521, 1205 109.818 C 1186.871 99.243, 1160.718 85.113, 1151.500 80.914 C 1147.650 79.161, 1141.125 76.166, 1137 74.259 C 1100.237 57.268, 1066.286 44.252, 1032 34.006 C 1027.875 32.773, 1022.700 31.145, 1020.500 30.387 C 1016.218 28.912, 992.964 23.220, 978.380 20.077 C 973.496 19.024, 964.457 17, 958.293 15.578 C 952.128 14.156, 945.153 12.763, 942.793 12.484 C 940.432 12.204, 936.250 11.536, 933.500 11 C 930.750 10.464, 927.600 10.024, 926.500 10.023 C 923.287 10.020, 916.629 9.247, 915 8.689 C 914.175 8.406, 908.325 7.437, 902 6.536 C 895.675 5.635, 889.150 4.666, 887.500 4.382 C 884.364 3.843, 868.900 2.591, 846 1.023 C 830.589 -0.033, 809.019 -0.018, 778 1.069 M 1283.476 349 L 1209.453 349.500 1204.294 352.811 C 1201.457 354.632, 1195.688 359.918, 1191.475 364.559 C 1182.505 374.439, 1162.224 393.715, 1119.990 432.500 C 1067.847 480.384, 1056.869 492.349, 1051.946 506.656 C 1049.609 513.449, 1047.383 525.183, 1046 538 C 1042.627 569.245, 1031.190 593.676, 1006.845 621.639 C 980.941 651.391, 924.561 709.092, 915.198 715.431 C 906.976 720.998, 896.362 719.456, 890.744 711.878 C 887.995 708.169, 888.045 698.276, 890.835 693.780 C 892.963 690.352, 945.627 637.640, 959.500 625.052 C 977.857 608.396, 980.702 603.636, 977.129 595.559 C 974.635 589.920, 970.486 587.603, 964.001 588.226 C 957.207 588.879, 951.727 593.040, 934 611.010 C 902.658 642.780, 873.468 670.603, 869.562 672.430 C 861.218 676.333, 851.821 673.393, 848.105 665.718 C 843.156 655.494, 844.046 654.296, 885.500 615.412 C 893.750 607.673, 908.227 594.280, 917.671 585.649 C 937.167 567.832, 940.125 563.698, 938.133 557.049 C 935.988 549.890, 928.505 545.120, 921.487 546.436 C 916.877 547.301, 913.437 550.333, 883.558 579.862 C 833.809 629.028, 827.855 634.021, 820.686 632.587 C 812.831 631.016, 807.010 624.477, 807.004 617.218 C 806.999 611.608, 808.934 607.182, 814.439 600.208 C 819.404 593.920, 843.067 571.125, 861 555.356 C 895.063 525.404, 908.781 513.049, 911.299 510.057 L 914.098 506.730 913.543 435.615 C 913.238 396.502, 912.990 363.503, 912.994 362.285 C 913.001 359.643, 907.830 353.481, 903.901 351.449 C 900.038 349.451, 795.192 349.261, 794.506 351.250 C 794.269 351.938, 792.462 363.525, 790.491 377 C 788.520 390.475, 783.988 421.300, 780.420 445.500 C 776.852 469.700, 773.074 495.350, 772.024 502.500 C 762.930 564.434, 760.897 578.065, 760.032 582.925 C 759.486 585.991, 757.450 599.525, 755.507 613 C 753.565 626.475, 750.856 644.925, 749.489 654 C 748.121 663.075, 746.338 675, 745.528 680.500 C 744.717 686, 741.984 704.225, 739.454 721 C 736.924 737.775, 733.972 757.350, 732.895 764.500 C 731.817 771.650, 729.846 785.375, 728.514 795 C 727.182 804.625, 724.485 823.300, 722.521 836.500 C 720.557 849.700, 716.705 876.025, 713.961 895 C 711.217 913.975, 708.526 931.750, 707.981 934.500 C 707.436 937.250, 705.849 947.375, 704.456 957 C 700.546 984.003, 695.296 1018.597, 692.012 1039 C 690.374 1049.175, 687.912 1066.413, 686.539 1077.307 C 685.166 1088.201, 683.381 1100.801, 682.572 1105.307 C 681.078 1113.632, 675.837 1147.475, 669.458 1190 C 667.519 1202.925, 664.807 1220.897, 663.432 1229.938 C 662.056 1238.980, 661.159 1246.971, 661.437 1247.697 C 661.855 1248.786, 702.675 1248.972, 894.766 1248.758 C 1115.722 1248.513, 1127.726 1248.410, 1130.294 1246.727 C 1132.325 1245.396, 1133 1244.136, 1133 1241.673 C 1133 1236.892, 1130.709 1233.491, 1103.948 1198.554 C 1097.652 1190.334, 1091.150 1181.704, 1089.500 1179.378 C 1087.850 1177.052, 1083.097 1170.728, 1078.937 1165.324 C 1074.777 1159.921, 1067.802 1150.858, 1063.437 1145.184 C 1054.357 1133.383, 1027.842 1097.622, 1018.813 1085 C 1004.614 1065.150, 998.517 1060.222, 981.766 1055.054 C 934.634 1040.512, 904.952 1024.103, 878.194 997.794 C 853.369 973.387, 837.517 944.925, 830.965 913 C 826.999 893.671, 829.287 869.642, 836.677 853 C 839.935 845.665, 848.165 837.522, 856.469 833.418 C 862.542 830.416, 865.313 829.688, 873.127 829.038 C 878.282 828.610, 883.625 828.393, 885 828.556 C 886.375 828.719, 890.098 829.116, 893.274 829.438 C 901.375 830.259, 916.875 835.372, 927.500 840.729 C 949.573 851.856, 964.245 863.297, 980.429 882 C 994.170 897.881, 1001.214 908.717, 1008.696 925.489 C 1019.389 949.457, 1021.475 958.350, 1024.041 990.906 C 1025.151 1004.983, 1026.711 1019.765, 1027.508 1023.756 C 1031.568 1044.076, 1045.156 1065.576, 1080.500 1107.607 C 1098.734 1129.291, 1114.366 1147.287, 1125.545 1159.467 C 1140.868 1176.162, 1163.816 1202.390, 1174.523 1215.446 C 1190.041 1234.369, 1195.485 1240.387, 1200.567 1244.239 C 1209.323 1250.877, 1210.163 1250.986, 1244.743 1249.973 C 1261.659 1249.478, 1301.375 1249.031, 1333 1248.980 C 1374.733 1248.912, 1391.450 1248.560, 1393.965 1247.694 C 1398.883 1246, 1402.023 1241.037, 1401.013 1236.556 C 1399.943 1231.815, 1393.622 1221.715, 1364.711 1178.561 C 1355.476 1164.777, 1329.835 1126.275, 1307.729 1093 C 1266.955 1031.625, 1261.724 1023.800, 1204.456 938.500 C 1156.010 866.340, 1118.133 810.917, 1093.460 776.085 C 1069.431 742.161, 1069.892 742.948, 1069.720 735.583 C 1069.562 728.832, 1070.052 728.090, 1089.500 705.710 C 1098.300 695.582, 1110.521 681.267, 1116.657 673.898 C 1136.684 649.849, 1150.025 634.066, 1198.500 577.076 C 1206.750 567.377, 1215.514 556.979, 1217.976 553.971 C 1220.437 550.962, 1228.987 540.860, 1236.976 531.523 C 1244.964 522.186, 1257.712 506.886, 1265.305 497.523 C 1278.747 480.948, 1282.275 476.668, 1298.634 457.084 C 1302.961 451.905, 1309.200 444.391, 1312.500 440.385 C 1315.800 436.380, 1327.598 422.070, 1338.717 408.586 C 1373.375 366.555, 1375.701 363.122, 1373.907 356.626 C 1372.651 352.075, 1369.608 350.032, 1362.805 349.171 C 1359.887 348.802, 1324.189 348.725, 1283.476 349 M 1103.500 350.599 C 1097.450 351.315, 1073.375 352.360, 1050 352.921 C 1026.625 353.481, 1001.650 354.379, 994.500 354.915 C 987.350 355.452, 973.625 356.370, 964 356.957 C 954.375 357.543, 945.071 358.257, 943.325 358.543 L 940.150 359.062 939.735 367.281 C 939.507 371.802, 939.360 397.775, 939.410 425 C 939.497 472.615, 939.576 474.629, 941.500 477.894 C 944.471 482.937, 946.408 483.838, 949.739 481.726 C 957.820 476.602, 969.524 470.815, 977.500 467.999 C 986.109 464.960, 987.130 464.827, 1001 464.928 C 1008.975 464.985, 1018.200 465.518, 1021.500 466.111 C 1032.642 468.114, 1033.584 467.866, 1039.339 461.414 C 1042.177 458.232, 1046.750 452.850, 1049.500 449.455 C 1052.250 446.060, 1069.156 425.762, 1087.069 404.349 C 1117.759 367.663, 1131 351.180, 1131 349.661 C 1131 348.634, 1115.680 349.157, 1103.500 350.599 M 433.168 357.146 C 425.229 361.075, 421.453 370.403, 424.048 379.672 C 425.735 385.698, 432.076 392.400, 437.500 393.890 C 440.314 394.663, 481.376 394.990, 576.007 394.994 C 660.551 394.998, 711.778 395.363, 713.920 395.977 C 722.258 398.368, 729.119 406.118, 730.363 414.551 C 730.691 416.779, 730.536 421.279, 730.019 424.551 C 729.170 429.918, 728.579 430.964, 723.981 435.239 C 714.788 443.788, 724.519 443.258, 583.969 442.855 L 460.173 442.500 455.913 445.500 C 447.814 451.204, 444.772 461.758, 448.912 469.790 C 451.407 474.630, 456.500 479.449, 461.500 481.699 C 465.261 483.393, 472.752 483.530, 587 484 C 720.955 484.551, 710.991 484.041, 717.136 490.661 C 722.769 496.729, 724.672 503.445, 723.018 511.415 C 721.678 517.867, 717.615 523.453, 711.682 527 L 707.500 529.500 559.500 530 C 424.054 530.458, 411.201 530.641, 407.980 532.167 C 403.635 534.225, 401.527 536.495, 399.538 541.254 C 395.033 552.037, 400.441 563.771, 412.342 569.034 L 417.184 571.175 556.842 571.660 C 709.168 572.189, 700.947 571.852, 707.376 577.827 C 711.818 581.955, 713.953 587.552, 713.978 595.137 C 713.997 600.986, 713.614 602.348, 710.750 606.608 C 708.928 609.317, 705.372 612.751, 702.658 614.421 L 697.817 617.401 492.658 617.951 L 287.500 618.500 283 621.017 C 279.876 622.764, 277.649 625.057, 275.717 628.517 C 268.743 641.004, 276.099 656.361, 290.371 659.108 C 292.642 659.545, 353.675 660.027, 426 660.179 C 498.325 660.331, 585.625 660.691, 620 660.978 L 682.500 661.500 687.038 664.652 C 693.556 669.180, 697.448 676.641, 697.478 684.664 C 697.497 689.935, 697.060 691.454, 694.461 695.152 C 692.789 697.530, 689.414 700.832, 686.961 702.488 L 682.500 705.500 574 705.500 C 514.325 705.500, 401.825 705.302, 324 705.060 C 169.392 704.580, 178.801 704.253, 171.998 710.335 C 162.636 718.704, 163.944 734.809, 174.593 742.285 C 178.218 744.830, 179.932 745.255, 189.593 746.004 C 195.592 746.469, 282.850 747.113, 383.501 747.436 C 506.982 747.833, 567.744 748.367, 570.322 749.078 C 575.089 750.395, 581.492 756.083, 584.215 761.422 C 589.484 771.749, 583.648 787.651, 573.342 791.052 C 570.693 791.927, 532.985 792.261, 425.642 792.363 C 292.513 792.490, 281.265 792.629, 278.425 794.185 C 274.050 796.583, 268.453 803.097, 267.009 807.472 C 264.136 816.178, 269.633 827.099, 279.500 832.286 L 283.500 834.389 470.500 835.166 C 601.046 835.708, 658.661 836.273, 661.345 837.040 C 670.014 839.514, 677.993 852.024, 676.424 860.683 C 675.060 868.213, 670.335 875.214, 664.500 878.350 L 660.500 880.500 487.340 880.500 L 314.180 880.500 309.848 883.542 C 299.009 891.153, 297.840 905.972, 307.301 915.835 C 314.277 923.108, 297.823 922.445, 485 923 L 653.500 923.500 657.583 926.157 C 666.646 932.055, 670.002 939.339, 668.091 948.962 C 666.698 955.979, 662.655 961.802, 656.956 965 L 652.500 967.500 603 967.130 C 575.775 966.927, 525.900 967.098, 492.167 967.511 L 430.835 968.261 426.194 971.381 C 415.011 978.898, 412.873 991.368, 421.068 1001.279 C 422.787 1003.357, 425.932 1005.945, 428.057 1007.029 C 431.786 1008.931, 434.370 1009.004, 502.210 1009.124 C 540.870 1009.192, 588.488 1009.529, 608.028 1009.874 L 643.557 1010.500 648.704 1014.281 C 663.397 1025.073, 661.799 1045.110, 645.621 1052.942 C 641.381 1054.994, 640.876 1055, 477.381 1055 L 313.393 1055 308.129 1057.623 C 296.025 1063.655, 293.186 1078.250, 302.139 1088.420 C 309.978 1097.326, 293.462 1096.467, 462.500 1096.757 L 612.500 1097.014 618 1099.757 C 633.629 1107.552, 635.221 1130.117, 620.795 1139.384 C 617.508 1141.495, 617.263 1141.501, 514.500 1142 C 421.044 1142.454, 411.176 1142.655, 408 1144.168 C 401.154 1147.431, 396 1155.207, 396 1162.272 C 396 1167.251, 400.655 1175.737, 405.186 1179.020 C 407.339 1180.580, 411.351 1182.338, 414.100 1182.928 C 417.451 1183.647, 449.421 1184, 511.099 1184 C 611.327 1184, 606.271 1183.716, 610.912 1189.615 C 612.392 1191.496, 613 1193.714, 613 1197.227 C 613 1202.589, 611.058 1206.002, 606.177 1209.222 C 603.656 1210.884, 596.517 1210.987, 483.946 1210.993 L 364.392 1211 359.742 1213.948 C 352.492 1218.547, 349.021 1227.225, 351.112 1235.529 C 352.443 1240.818, 357.598 1247.077, 362.717 1249.620 C 366.375 1251.438, 371.081 1251.488, 505.500 1251.138 C 581.950 1250.939, 644.573 1250.714, 644.662 1250.638 C 645.175 1250.199, 651.483 1212.956, 654.509 1192.500 C 661.136 1147.691, 664.907 1122.533, 666.950 1109.500 C 668.071 1102.350, 669.682 1090.723, 670.531 1083.662 C 671.379 1076.600, 672.962 1065.800, 674.049 1059.662 C 675.136 1053.523, 677.127 1040.625, 678.474 1031 C 681.677 1008.102, 682.567 1002.212, 684.363 992 C 685.185 987.325, 686.154 980.800, 686.516 977.500 C 686.879 974.200, 688.464 963.400, 690.040 953.500 C 692.791 936.209, 696.069 914.273, 698.108 899.500 C 698.639 895.650, 699.968 887.073, 701.060 880.439 C 702.153 873.806, 703.909 862.106, 704.962 854.439 C 706.016 846.773, 708.241 831.275, 709.906 820 C 711.571 808.725, 713.596 794.550, 714.406 788.500 C 715.215 782.450, 717.010 770.975, 718.394 763 C 719.778 755.025, 721.832 741.975, 722.958 734 C 724.921 720.098, 726.039 712.573, 728.079 699.500 C 728.594 696.200, 729.439 690.350, 729.956 686.500 C 730.473 682.650, 732.076 671.850, 733.517 662.500 C 734.959 653.150, 736.756 641, 737.512 635.500 C 738.268 630, 739.329 622.575, 739.871 619 C 740.412 615.425, 741.775 606.200, 742.899 598.500 C 744.022 590.800, 745.589 580.675, 746.381 576 C 747.173 571.325, 748.358 563.450, 749.016 558.500 C 749.673 553.550, 751.098 543.875, 752.182 537 C 754.291 523.620, 756.427 508.433, 758.019 495.500 C 758.560 491.100, 759.445 485.025, 759.986 482 C 760.527 478.975, 762.332 467.050, 763.997 455.500 C 765.663 443.950, 767.904 428.650, 768.977 421.500 C 770.051 414.350, 771.633 403.100, 772.494 396.500 C 774.044 384.602, 777.680 361.576, 778.691 357.250 L 779.217 355 608.358 355.001 L 437.500 355.002 433.168 357.146 M 322.500 442.897 C 314.811 444.292, 310.256 447.749, 307.538 454.254 C 303.409 464.137, 307.555 474.995, 317.500 480.347 C 321.336 482.412, 322.708 482.500, 351 482.500 C 379.682 482.500, 380.617 482.438, 384.712 480.249 C 392.513 476.080, 396 470.402, 396 461.867 C 396 454.598, 392.769 448.537, 387.125 445.219 L 382.500 442.500 354.500 442.335 C 339.100 442.245, 324.700 442.497, 322.500 442.897 M 241.404 532.392 C 234.762 535.485, 231.910 539.989, 231.323 548.312 C 230.934 553.822, 231.218 555.065, 233.913 559.662 C 236.352 563.822, 238.061 565.374, 242.720 567.662 L 248.500 570.500 290 570.214 L 331.500 569.927 336.780 567.375 C 347.670 562.112, 351.301 548.569, 344.436 538.822 C 342.821 536.529, 339.517 533.606, 337.093 532.327 L 332.685 530 289.593 530.010 L 246.500 530.020 241.404 532.392 M 123.759 619.401 C 115.394 622.435, 112.276 626.520, 111.285 635.742 C 110.371 644.247, 114.694 652.744, 121.782 656.374 C 126.172 658.622, 132.508 658.992, 171 659.252 L 207.500 659.499 212.177 656.750 C 217.966 653.348, 220.400 650.322, 222.546 643.862 C 223.973 639.564, 224.033 638.163, 222.959 634.169 C 221.307 628.022, 217.845 623.495, 212.692 620.741 C 208.570 618.538, 207.820 618.496, 168 618.272 C 135.949 618.092, 126.720 618.327, 123.759 619.401 M 1596.654 861.250 C 1595.564 875.256, 1596.163 879.134, 1597.542 867 C 1599.184 852.559, 1599.164 853, 1598.148 853 C 1597.680 853, 1597.007 856.712, 1596.654 861.250 M 1595.624 882 C 1595.002 884.495, 1592.913 905.605, 1593.101 907.500 C 1593.365 910.171, 1594.813 902.875, 1594.900 898.434 C 1594.955 895.647, 1595.478 890.781, 1596.062 887.621 C 1597.132 881.832, 1596.782 877.350, 1595.624 882 M 1586 948.402 C 1586 948.806, 1584.414 956.387, 1582.476 965.247 C 1580.538 974.108, 1579.131 981.840, 1579.348 982.429 C 1579.566 983.018, 1580.072 981.700, 1580.473 979.500 C 1580.874 977.300, 1582.019 972.125, 1583.018 968 C 1585.949 955.894, 1587.216 948.883, 1586.587 948.254 C 1586.264 947.931, 1586 947.997, 1586 948.402 M 1574.579 999.579 C 1573.600 1003.733, 1573.012 1007.345, 1573.273 1007.606 C 1573.534 1007.867, 1574.548 1004.681, 1575.526 1000.526 C 1576.505 996.371, 1577.093 992.759, 1576.832 992.499 C 1576.572 992.239, 1575.558 995.425, 1574.579 999.579 M 1549.389 1075.674 C 1542.442 1095.408, 1542.239 1096.112, 1545.488 1089.235 C 1548.202 1083.487, 1556.206 1059.873, 1555.634 1059.300 C 1555.439 1059.105, 1552.629 1066.473, 1549.389 1075.674 M 1538.709 1103.706 C 1536.765 1108.543, 1533.785 1115.579, 1532.087 1119.343 C 1528.713 1126.823, 1528.243 1128.526, 1530.404 1125.440 C 1532.295 1122.740, 1543.249 1095.915, 1542.689 1095.355 C 1542.445 1095.111, 1540.654 1098.869, 1538.709 1103.706 M 279.184 1142.950 C 272.253 1144.673, 265.930 1150.833, 264.094 1157.650 C 261.118 1168.703, 269.196 1180.356, 281.687 1183.029 C 284.901 1183.716, 295.362 1184.017, 309.187 1183.819 C 329.494 1183.529, 331.815 1183.317, 335 1181.461 C 339.425 1178.884, 344.611 1171.262, 345.493 1166.040 C 346.952 1157.408, 340.457 1146.529, 332.269 1143.890 C 327.821 1142.456, 284.271 1141.685, 279.184 1142.950 M 1342.676 1384.733 C 1328.181 1398.189, 1322.266 1404, 1323.063 1404 C 1323.530 1404, 1329.670 1398.527, 1336.706 1391.838 C 1343.743 1385.150, 1349.688 1379.525, 1349.917 1379.338 C 1350.146 1379.152, 1350 1379, 1349.592 1379 C 1349.185 1379, 1346.072 1381.580, 1342.676 1384.733 M 1088 1544.996 C 1077.659 1548.406, 1056.574 1556.107, 1056.092 1556.650 C 1055.767 1557.018, 1056.175 1557.095, 1057 1556.822 C 1057.825 1556.549, 1063 1554.842, 1068.500 1553.029 C 1074 1551.216, 1080.408 1548.893, 1082.739 1547.866 C 1085.071 1546.840, 1087.632 1546, 1088.430 1546 C 1089.229 1546, 1090.160 1545.550, 1090.500 1545 C 1090.840 1544.450, 1090.979 1544.039, 1090.809 1544.086 C 1090.639 1544.133, 1089.375 1544.543, 1088 1544.996 M 1002.500 1573.587 C 999.750 1574.362, 993.243 1575.902, 988.039 1577.009 C 982.836 1578.116, 978.111 1579.533, 977.539 1580.157 C 976.802 1580.964, 976.859 1581.091, 977.736 1580.597 C 978.415 1580.213, 981.340 1579.474, 984.236 1578.953 C 987.131 1578.431, 991.300 1577.576, 993.500 1577.051 C 995.700 1576.527, 999.731 1575.622, 1002.459 1575.040 C 1005.186 1574.458, 1007.864 1573.536, 1008.409 1572.991 C 1009.669 1571.731, 1008.764 1571.823, 1002.500 1573.587 M 960.500 1583.065 C 953.900 1584.640, 941.750 1587.101, 933.500 1588.535 C 925.250 1589.969, 918.050 1591.627, 917.500 1592.218 C 916.797 1592.974, 917.095 1593.073, 918.500 1592.549 C 919.600 1592.139, 923.425 1591.362, 927 1590.822 C 940.316 1588.811, 943.744 1588.212, 953.894 1586.117 C 965.009 1583.823, 975 1581.131, 975 1580.429 C 975 1579.719, 973.030 1580.077, 960.500 1583.065 M 905 1592.731 C 903.075 1592.958, 901.072 1593.561, 900.550 1594.071 C 899.284 1595.308, 901.129 1595.180, 908.500 1593.520 C 914.217 1592.231, 912.516 1591.848, 905 1592.731" stroke="none" fill="#040404" fill-rule="evenodd"/></svg>